<svg id="Layer_1" data-name="Layer 1" xmlns="http://www.w3.org/2000/svg" viewBox="0 0 1920 6480"><defs><style>.cls-1{fill:#0041f9;}.cls-1,.cls-10,.cls-11,.cls-12,.cls-2,.cls-3,.cls-4,.cls-5,.cls-6,.cls-7,.cls-8,.cls-9{opacity:0.3;}.cls-2{fill:#de44cc;}.cls-3{fill:#06a5f4;}.cls-4{fill:#00d5e5;}.cls-5{fill:#ff5b00;}.cls-6{fill:#06efa1;}.cls-7{fill:#04bc99;}.cls-8{fill:#f7dc19;}.cls-9{fill:#002fdb;}.cls-10{fill:#f93030;}.cls-11{fill:#00e2d1;}.cls-12{fill:#b470fc;}</style></defs><path class="cls-1" d="M156.56,991c.65,0,1.29,0,1.94,0a50.71,50.71,0,0,0,50.71-50.71c0-59.48-102-46.32-102-105.8,0-61.67,101.42-35.91,101.42-97,0-52.9-103.61-41.39-103.61-102.79,0-54.82,103.61-37.27,103.61-100A50.71,50.71,0,0,0,158,484h-.15c-140,0-253.52,113.51-253.52,253.52C-95.72,877.13,17.12,990.37,156.56,991Z"/><path class="cls-2" d="M147.71,484.35c-.65,0-1.29,0-1.94,0A50.72,50.72,0,0,0,95.06,535c0,59.48,102,46.32,102,105.8,0,61.67-101.42,35.91-101.42,97,0,52.9,103.61,41.39,103.61,102.79,0,54.82-103.61,37.28-103.61,100a50.71,50.71,0,0,0,50.71,50.71h.15c140,0,253.52-113.5,253.52-253.52C400,598.27,287.15,485,147.71,484.35Z"/><path class="cls-3" d="M1408.22-66.43c-.89.54-1.78,1.08-2.67,1.65A82.29,82.29,0,0,0,1381.2,49c52.46,81,111.34,11.94,163.8,93,54.4,84-38.06,99.61,15.85,182.88,46.67,72.07,108,3.47,162.15,87.12,48.35,74.68-38.6,103.7,16.76,189.22a82.31,82.31,0,0,0,113.82,24.35l.1-.07.1-.06c190.75-123.5,245.27-378.26,121.77-569C1852.41-133.77,1598.79-188.52,1408.22-66.43Z"/><path class="cls-4" d="M1784.38,1612.44c.59-.44,1.17-.89,1.75-1.36a58,58,0,0,0,8.69-81.5c-42.7-52.89-123.94,32-166.64-20.89-44.28-54.85,64.42-104.74,20.53-159.1-38-47-78.63,2-122.71-52.59-39.36-48.75,22.16-72-22.91-127.8a58,58,0,0,0-81.5-8.69.18.18,0,0,1-.07,0l-.06,0c-124.52,100.53-144,283-43.46,407.49C1478.23,1692.25,1659.88,1712,1784.38,1612.44Z"/><path class="cls-5" d="M1472.74,1563.16c-.47-.57-.93-1.14-1.38-1.73a58,58,0,0,1,10.85-81.24c54-41.29,112.84,60.43,166.85,19.14,56-42.8-37.79-117,17.71-159.44,48-36.72,74.48,24.73,130.23-17.89,49.78-38-3-79.33,54-122.9a58,58,0,0,1,81.24,10.85l.06.07,0,.06c97.19,127.14,72.91,309-54.24,406.19C1751.3,1713.17,1570.14,1689.32,1472.74,1563.16Z"/><path class="cls-6" d="M1.93,2274.4c.75.94,1.52,1.87,2.32,2.79a94.94,94.94,0,0,0,133.94,9.36C222.24,2213.48,125,2149.07,209,2076c87.15-75.76,128.76,35.69,215.13-39.4,74.75-65-15.89-126.17,70.87-201.6,77.46-67.34,127,29.53,215.74-47.58a94.93,94.93,0,0,0,9.36-133.94.52.52,0,0,0-.1-.11.39.39,0,0,0-.08-.1c-172-197.85-471.84-218.8-669.69-46.79C-147,1778-168.43,2076.54,1.93,2274.4Z"/><path class="cls-7" d="M1795.67,2390c-1.07-.35-2.16-.69-3.25-1a89.22,89.22,0,0,0-110.35,61.19c-28.83,100.6,150,127.77,121.19,228.38-29.89,104.31-188.94,11.58-218.57,115-25.64,89.48,67.57,99.53,37.81,203.38-26.57,92.72-105.69,33.53-136.12,139.7a89.22,89.22,0,0,0,61.2,110.34l.13,0,.11,0c236.83,67.86,483.84-69.12,551.7-305.95C2167.18,2705,2031.21,2458.75,1795.67,2390Z"/><path class="cls-8" d="M1957.94,2803.19c-.55,1-1.11,2-1.7,2.95a89.23,89.23,0,0,1-122.54,30.1c-89.52-54.21,23.22-195.68-66.3-249.89-92.82-56.21-146.47,119.9-238.47,64.19-79.61-48.21-7.77-123.73-100.18-179.69-82.5-50-110.62,52-205.08-5.18a89.21,89.21,0,0,1-30.1-122.53l.07-.12.06-.11c127.62-210.73,401.91-278.1,612.64-150.48C2016.44,2319.67,2084,2592.71,1957.94,2803.19Z"/><path class="cls-9" d="M1572.28,4478.94c.93,0,1.86.06,2.8.06a73.27,73.27,0,0,0,73.27-73.27c0-85.94-147.33-66.93-147.33-152.87,0-89.1,146.53-51.88,146.53-140.19,0-76.44-149.7-59.8-149.7-148.51,0-79.21,149.7-53.86,149.7-144.56a73.26,73.26,0,0,0-73.26-73.26h-.22c-202.3,0-366.3,164-366.3,366.31C1207.77,4314.35,1370.8,4478,1572.28,4478.94Z"/><path class="cls-10" d="M1660.63,3598c-.93,0-1.86-.06-2.8-.06a73.26,73.26,0,0,0-73.26,73.27c0,85.94,147.32,66.93,147.32,152.87,0,89.1-146.53,51.88-146.53,140.19,0,76.44,149.7,59.8,149.7,148.51,0,79.21-149.7,53.86-149.7,144.56a73.26,73.26,0,0,0,73.26,73.26h.22c202.3,0,366.31-164,366.31-366.31C2025.15,3762.62,1862.11,3599,1660.63,3598Z"/><path class="cls-3" d="M66.58,2979.86c-.94-.33-1.88-.66-2.84-1a78.57,78.57,0,0,0-98.56,51.29c-27.73,87.88,51.41,92.48,23.69,180.36-28.74,91.13-88.93,29.28-117.42,119.59-24.66,78.17,65,92.69,36.42,183.41-25.55,81-101.71,23.55-131,116.29a78.57,78.57,0,0,0,51.29,98.56l.12,0,.1,0C35.3,3793.74,255.92,3678.93,321.18,3472,386.25,3265.77,272.31,3045.85,66.58,2979.86Z"/><path class="cls-11" d="M230.82,4427.24c-.94.09-1.88.19-2.83.32a74.66,74.66,0,0,0-64.11,83.87c11.59,86.78,157.8,47.72,169.39,134.51,12,90-141,72.15-129.07,161.33,10.3,77.19,159.23,40.21,171.19,129.79,10.68,80-143.91,74.58-131.68,166.17a74.64,74.64,0,0,0,83.87,64.1h.21C532.09,5140,675.6,4952.3,648.32,4748,621.12,4544.3,434.42,4401.05,230.82,4427.24Z"/><path class="cls-12" d="M627.46,4823.54c-.09.94-.19,1.88-.32,2.83a74.65,74.65,0,0,1-83.87,64.11c-86.78-11.59-47.72-157.8-134.51-169.39-90-12-72.15,141-161.33,129.08-77.19-10.31-40.21-159.24-129.79-171.2-80-10.68-74.58,143.91-166.17,131.68a74.63,74.63,0,0,1-64.1-83.86s0-.08,0-.12a.34.34,0,0,0,0-.1c27.28-204.3,215-347.8,419.31-320.53C510.4,4433.24,653.65,4619.94,627.46,4823.54Z"/><path class="cls-6" d="M1412.26,5733.08c.63.79,1.27,1.56,1.93,2.32,28.61,32.92,81.09,34.14,117.22,2.73,76.72-66.7,11.87-104.43,88.59-171.13,79.55-69.16,93.64,11.57,172.49-57,68.23-59.33,11.31-82.18,90.51-151,70.71-61.48,90.16-6,171.12-76.43,36.13-31.41,42.21-83.55,13.6-116.46l-.08-.09-.07-.09c-143.06-164.56-405.45-170.67-586.06-13.65C1301.43,5308.84,1270.65,5568.45,1412.26,5733.08Z"/><path class="cls-2" d="M288.92,5938.43c-.69.35-1.37.71-2.05,1.09a60.78,60.78,0,0,0-23.69,82.64c34.59,62.36,133.84-10.72,168.42,51.64,35.85,64.66-85.45,96.61-49.92,160.69C412.44,6290,454.3,6250.63,490,6315c31.87,57.47-26.88,66.34,9.61,132.15a60.8,60.8,0,0,0,82.65,23.68l.08-.05.07,0c146.8-81.4,199.81-266.4,118.4-413.19C619.65,5911.18,435.5,5858.06,288.92,5938.43Z"/><path class="cls-8" d="M566.15,6059.31c.21.74.41,1.48.6,2.24a60.8,60.8,0,0,1-44.53,73.54c-69.25,17-83.09-105.47-152.34-88.46-71.8,17.64-12.8,128.34-84,145.82-61.59,15.13-70.44-54-141.92-36.45-63.82,15.68-21.15,76.51-94.22,94.46a60.79,60.79,0,0,1-73.54-44.54s0-.06,0-.09a.19.19,0,0,1,0-.08c-40-163,59.64-327.62,222.65-367.66C361.38,5798.17,525.49,5897.15,566.15,6059.31Z"/></svg>